<svg width="20" height="17" viewBox="0 0 20 17" fill="none" xmlns="http://www.w3.org/2000/svg">
<path d="M19.4643 2.5H0.535714C0.239866 2.5 0 2.26013 0 1.96429V0.535714C0 0.239866 0.239866 0 0.535714 0H19.4643C19.7601 0 20 0.239866 20 0.535714V1.96429C20 2.26013 19.7601 2.5 19.4643 2.5ZM19.4643 9.64286H0.535714C0.239866 9.64286 0 9.40299 0 9.10714V7.67857C0 7.38272 0.239866 7.14286 0.535714 7.14286H19.4643C19.7601 7.14286 20 7.38272 20 7.67857V9.10714C20 9.40299 19.7601 9.64286 19.4643 9.64286ZM19.4643 16.7857H0.535714C0.239866 16.7857 0 16.5458 0 16.25V14.8214C0 14.5256 0.239866 14.2857 0.535714 14.2857H19.4643C19.7601 14.2857 20 14.5256 20 14.8214V16.25C20 16.5458 19.7601 16.7857 19.4643 16.7857Z" fill="white"/>
</svg>
